<svg width="646" height="556" viewBox="0 0 646 556" fill="none" xmlns="http://www.w3.org/2000/svg">
<path d="M259.641 39.3114C285.503 16.1987 319.396 3.34383 353.667 0.13282C362.926 -0.0288075 372.185 -0.0287825 381.445 0.057419C391.059 0.639279 400.48 2.85896 409.955 4.52912L409.998 5.62818C411.408 5.5743 412.819 5.52044 414.24 5.47734L414.369 6.64105C415.747 6.33934 416.942 6.59794 417.987 7.40608C420.818 8.6991 424.188 8.68834 426.697 10.6925C430.411 11.5222 434.212 12.8368 437.313 15.078C440.532 15.6922 443.245 17.621 446.001 19.2804C449.996 20.7027 453.14 23.7089 456.94 25.5515C461.269 28.7194 466.092 31.3163 469.828 35.2384C473.564 37.0487 475.836 40.6691 479.098 43.0935C483.426 45.9166 485.73 50.7439 489.725 53.9549C496.68 62.101 503.248 70.6673 508.739 79.8908C514.187 90.4613 519.559 101.247 522.369 112.863C526.45 126.935 528.603 141.665 528.549 156.308C548.457 154.757 567.051 163.625 583.804 173.355C597.187 182.191 608.826 193.515 618.785 206.047C631.877 223.47 641.04 244.029 644.323 265.634C647.155 285.643 645.895 306.235 640.351 325.684C629.185 362.869 598.802 393.815 561.614 405.097C550.664 408.222 539.295 410.151 527.893 410.043C500.987 410.172 474.092 410.043 447.186 409.892C443.859 409.87 440.5 410.14 437.194 409.569C443.633 403.556 449.964 397.436 456.359 391.402C461.818 386.262 468.428 381.413 476.234 381.338C489.154 381.047 502.074 381.165 514.994 380.831C528.13 380.314 541.491 379.333 553.948 374.808C562.701 371.629 571.282 367.61 578.55 361.705C590.426 352.202 600.697 340.316 606.812 326.266C613.111 313.185 615.017 298.509 615.307 284.135C615.512 248.964 595.238 214.678 564.736 197.405C552.398 190.423 538.821 185.035 524.587 184.001C515.705 183.128 506.726 183.484 497.821 183.839C499.253 166.868 500.395 149.639 497.24 132.786C496.669 128.843 495.184 125.114 494.71 121.16C492.126 111.947 488.444 103.047 483.609 94.7821C477.462 82.5631 468.644 71.734 458.06 63.0815C444.968 51.2719 429.345 42.5225 413.012 36.0466C400.071 31.6287 386.602 28.6763 372.917 28.2884C352.235 28.1699 331.218 31.6072 312.301 40.2381C294.525 48.5996 278.935 61.1851 266.112 76.001C250.759 93.349 239.615 114.759 235.976 137.764C225.306 137.851 214.626 138.217 203.967 137.807C206.583 123.229 210.05 108.682 216.531 95.2886C226.771 73.8675 241.747 54.8493 259.641 39.3114Z" fill="url(#paint0_linear_78_997)"/>
<path d="M390.586 65.8508C392.685 63.6742 394.58 61.1204 397.433 59.9028C396.712 69.1048 393.74 77.9513 392.114 87.0132C388.368 103.823 385.041 120.718 381.369 137.549C378.441 151.848 375.986 166.232 372.637 180.434C372.078 185.423 371.582 190.487 370.398 195.347C368.988 208.073 366.538 217.501 364.955 230.226C362.974 230.226 361.273 230.275 358.495 230.226C347.32 230.032 336.182 230.291 325.017 230.873C328.806 218.492 332.036 205.928 336.225 193.655C338.023 187.794 340.327 182.083 341.737 176.113C339.325 177.827 337.98 180.51 336.117 182.729C329.625 190.649 323.768 199.064 317.437 207.114C304.711 223.125 292.695 239.698 279.818 255.602C276.61 259.503 273.832 263.737 270.623 267.638C279.215 267.045 287.882 267.692 296.442 266.571C312.613 266.442 328.828 266.754 344.956 265.461C385.837 264.459 426.74 263.78 467.643 263.554C479.206 263.058 491.921 268.489 496.809 279.555C501.73 290.169 497.875 302.808 490.317 311.126C480.767 321.266 471.023 331.233 461.333 341.243C454.615 348.904 447.369 356.07 440.188 363.311C430.131 373.698 420.409 384.409 410.407 394.85C395.14 411.541 378.947 427.348 363.518 443.888C329.259 479.295 294.913 514.616 261.332 550.681C259.394 552.685 257.466 554.991 254.613 555.626C254.926 551.327 256.659 547.34 257.973 543.289C265.929 521.049 274.176 498.917 282.219 476.698C289.314 455.482 297.518 434.675 305.249 413.685C312.915 392.296 321.227 371.144 328.742 349.702C331.326 342.138 334.34 334.724 337.42 327.343C338.809 323.927 342.846 322.936 346.098 322.257C352.235 327.192 359.707 330.015 366.156 334.476C362.097 351.943 354.582 368.354 349.403 385.486C343.449 401.239 338.453 417.37 331.961 432.918C334.76 428.565 338.776 425.247 341.909 421.163C348.176 413.825 355.777 407.715 361.731 400.108C367.459 393.977 373.703 388.298 379.044 381.801C385.396 374.883 392.308 368.494 398.564 361.468C406.574 352.611 415.327 344.465 423.241 335.511C430.315 327.893 437.797 320.652 444.882 313.023C450.459 307.204 455.832 301.159 461.732 295.653C393.697 296.02 325.706 299.004 257.682 300.136C250.145 300.157 242.221 297.658 237.311 291.656C231.799 285.32 231.357 276.075 233.457 268.284C236.461 259.072 243.082 251.744 248.864 244.18C260.589 229.612 271.722 214.581 283.425 200.002C296.108 184.583 307.704 168.323 320.484 152.979C343.664 123.789 366.307 94.1356 390.586 65.8508Z" fill="url(#paint1_linear_78_997)"/>
<path d="M105.369 155.906H257.369V185.906H105.369V155.906Z" fill="url(#paint2_linear_78_997)"/>
<path d="M72.3691 155.906H257.369V185.906H72.3691V155.906Z" fill="url(#paint3_linear_78_997)"/>
<path d="M24.3691 155.906H54.3691V185.906H24.3691V155.906Z" fill="url(#paint4_linear_78_997)"/>
<path d="M141.369 210.906H239.369V240.906H141.369V210.906Z" fill="url(#paint5_linear_78_997)"/>
<path d="M71.3691 210.906H101.369V240.906H71.3691V210.906Z" fill="url(#paint6_linear_78_997)"/>
<path d="M0.369141 266.906H30.3691V296.906H0.369141V266.906Z" fill="url(#paint7_linear_78_997)"/>
<path d="M57.3691 265.906H209.369V295.906H57.3691V265.906Z" fill="url(#paint8_linear_78_997)"/>
<path d="M104.369 322.906H314.369V352.906H104.369V322.906Z" fill="url(#paint9_linear_78_997)"/>
<path d="M35.3691 324.906H65.3691V354.906H35.3691V324.906Z" fill="url(#paint10_linear_78_997)"/>
<path d="M64.3691 381.906H94.3691V411.906H64.3691V381.906Z" fill="url(#paint11_linear_78_997)"/>
<path d="M134.369 380.906H280.369V410.906H134.369V380.906Z" fill="url(#paint12_linear_78_997)"/>
<defs>
<linearGradient id="paint0_linear_78_997" x1="689.326" y1="261.825" x2="-0.344836" y2="261.825" gradientUnits="userSpaceOnUse">
<stop stop-color="#0968E5"/>
<stop offset="1" stop-color="#091970"/>
</linearGradient>
<linearGradient id="paint1_linear_78_997" x1="689.326" y1="261.825" x2="-0.344836" y2="261.825" gradientUnits="userSpaceOnUse">
<stop stop-color="#0968E5"/>
<stop offset="1" stop-color="#091970"/>
</linearGradient>
<linearGradient id="paint2_linear_78_997" x1="689.326" y1="261.825" x2="-0.344836" y2="261.825" gradientUnits="userSpaceOnUse">
<stop stop-color="#0968E5"/>
<stop offset="1" stop-color="#091970"/>
</linearGradient>
<linearGradient id="paint3_linear_78_997" x1="689.326" y1="261.825" x2="-0.344836" y2="261.825" gradientUnits="userSpaceOnUse">
<stop stop-color="#0968E5"/>
<stop offset="1" stop-color="#091970"/>
</linearGradient>
<linearGradient id="paint4_linear_78_997" x1="689.326" y1="261.825" x2="-0.344836" y2="261.825" gradientUnits="userSpaceOnUse">
<stop stop-color="#0968E5"/>
<stop offset="1" stop-color="#091970"/>
</linearGradient>
<linearGradient id="paint5_linear_78_997" x1="689.326" y1="261.825" x2="-0.344836" y2="261.825" gradientUnits="userSpaceOnUse">
<stop stop-color="#0968E5"/>
<stop offset="1" stop-color="#091970"/>
</linearGradient>
<linearGradient id="paint6_linear_78_997" x1="689.326" y1="261.825" x2="-0.344836" y2="261.825" gradientUnits="userSpaceOnUse">
<stop stop-color="#0968E5"/>
<stop offset="1" stop-color="#091970"/>
</linearGradient>
<linearGradient id="paint7_linear_78_997" x1="689.326" y1="261.825" x2="-0.344836" y2="261.825" gradientUnits="userSpaceOnUse">
<stop stop-color="#0968E5"/>
<stop offset="1" stop-color="#091970"/>
</linearGradient>
<linearGradient id="paint8_linear_78_997" x1="689.326" y1="261.825" x2="-0.344836" y2="261.825" gradientUnits="userSpaceOnUse">
<stop stop-color="#0968E5"/>
<stop offset="1" stop-color="#091970"/>
</linearGradient>
<linearGradient id="paint9_linear_78_997" x1="689.326" y1="261.825" x2="-0.344836" y2="261.825" gradientUnits="userSpaceOnUse">
<stop stop-color="#0968E5"/>
<stop offset="1" stop-color="#091970"/>
</linearGradient>
<linearGradient id="paint10_linear_78_997" x1="689.326" y1="261.825" x2="-0.344836" y2="261.825" gradientUnits="userSpaceOnUse">
<stop stop-color="#0968E5"/>
<stop offset="1" stop-color="#091970"/>
</linearGradient>
<linearGradient id="paint11_linear_78_997" x1="689.326" y1="261.825" x2="-0.344836" y2="261.825" gradientUnits="userSpaceOnUse">
<stop stop-color="#0968E5"/>
<stop offset="1" stop-color="#091970"/>
</linearGradient>
<linearGradient id="paint12_linear_78_997" x1="689.326" y1="261.825" x2="-0.344836" y2="261.825" gradientUnits="userSpaceOnUse">
<stop stop-color="#0968E5"/>
<stop offset="1" stop-color="#091970"/>
</linearGradient>
</defs>
</svg>
